<svg xmlns="http://www.w3.org/2000/svg" viewBox="0 0 751.4 322.73"><defs><style>.cls-1,.cls-2{fill:#1ab7c6;}.cls-1{fill-rule:evenodd;}</style></defs><g id="Layer_2" data-name="Layer 2"><g id="Layer_1-2" data-name="Layer 1"><path id="Object_4" data-name="Object 4" class="cls-1" d="M482.7,78.85l-60.3,82.3v78.2a5.89,5.89,0,0,1-.1,1,5.35,5.35,0,0,1-.1,1.1,5.89,5.89,0,0,1-.3,1.1c-.13.33-.27.66-.4,1s-.27.66-.4,1a6.76,6.76,0,0,1-.6,1c-.27.33-.5.63-.7.9a6.36,6.36,0,0,0-.7.8c-.27.2-.57.43-.9.7a7.15,7.15,0,0,0-.8.7l-1,.6-1,.4-1,.4a11,11,0,0,1-1.1.3l-1.1.2H400.3l-1.1-.2a5.69,5.69,0,0,1-1.1-.3,6.33,6.33,0,0,1-1-.3l-1-.5-1-.6q-.41-.3-.9-.6a5,5,0,0,1-.8-.8,8.17,8.17,0,0,1-.7-.8,4.72,4.72,0,0,1-.7-.9q-.3-.41-.6-.9c-.13-.34-.27-.67-.4-1s-.27-.7-.4-1.1a11,11,0,0,1-.3-1.1c-.07-.34-.13-.7-.2-1.1v-79l-59.7-82.7-.4-.6c-.2-.6-.4-.9-.6-1.5a7,7,0,0,1-.3-.7l-.2-.8a3.08,3.08,0,0,0-.1-.8,12.38,12.38,0,0,1-.1-1.6V72l.1-.6.1-.7.1-.7c.07-.2.13-.43.2-.7l.3-.7.2-.6c.3-.5.5-.8.7-1.2l.4-.6.5-.6.4-.5.5-.5.6-.5.5-.4c.5-.3.8-.5,1.4-.8s.9-.4,1.4-.6a4.34,4.34,0,0,1,.8-.3,29.09,29.09,0,0,1,3.1-.4h11.8l.7.1h.7l.7.1.6.2.7.2.6.3.7.2.6.4.5.3.6.4.5.3.5.5.5.4.5.6c11,13,22.4,29.5,33.3,45.2,4.5,6.4,8.8,12.7,13.1,18.7,4.2-5.9,8.6-12.2,13-18.5,11-15.9,22.6-32.6,33.4-45.4l.2-.2a9.5,9.5,0,0,1,1.9-1.6l.5-.4.5-.3.7-.4.6-.3.7-.2c.5-.2.8-.2,1.3-.4l.7-.1h.7l.6-.1h11.9a7.57,7.57,0,0,0,1.5.1l.8.2.8.2a1.69,1.69,0,0,1,.8.2,13.83,13.83,0,0,1,2.7,1.4l.6.5.5.4.5.5.5.5.4.6a6.7,6.7,0,0,1,1.1,1.8l.3.6.2.7c.07.2.13.43.2.7l.2.7c0,.5.1.8.1,1.3l.1.7-.1.8-.1.8-.1.8-.2.7-.2.8a13.9,13.9,0,0,1-1.1,2.1Zm237.9-9a12.59,12.59,0,0,1,.2-2.2,7.86,7.86,0,0,1,.7-2.1,9.58,9.58,0,0,1,1-2,12.7,12.7,0,0,1,1.4-1.7,11.19,11.19,0,0,1,1.7-1.4,14,14,0,0,1,2-1.1,10.55,10.55,0,0,1,2.1-.6,12.59,12.59,0,0,1,2.2-.2H740a12.59,12.59,0,0,1,2.2.2,7.76,7.76,0,0,1,2.2.7,10.44,10.44,0,0,1,1.9,1,12.7,12.7,0,0,1,1.7,1.4,11.19,11.19,0,0,1,1.4,1.7,9.93,9.93,0,0,1,1.1,2,19.14,19.14,0,0,1,.7,2.1,12.59,12.59,0,0,1,.2,2.2v173.8a12.59,12.59,0,0,1-.2,2.2,19.14,19.14,0,0,1-.7,2.1v.1a17.74,17.74,0,0,1-1.1,1.9,11.19,11.19,0,0,1-1.4,1.7,7.14,7.14,0,0,1-1.7,1.4,10.41,10.41,0,0,1-4.1,1.8,12.59,12.59,0,0,1-2.2.2h-8.1a12.59,12.59,0,0,1-2.2-.2,8.24,8.24,0,0,1-2.1-.7,9.58,9.58,0,0,1-2-1c-.6-.47-1.17-.94-1.7-1.4a11.7,11.7,0,0,1-1.4-1.7,14.92,14.92,0,0,1-1-2,7.76,7.76,0,0,1-.7-2.2,12.59,12.59,0,0,1-.2-2.2Zm-56.8,0a13.81,13.81,0,0,1,.2-2.2,10.55,10.55,0,0,1,.6-2.1c.33-.67.7-1.33,1.1-2a11.43,11.43,0,0,1,3.1-3.1,9.58,9.58,0,0,1,2-1,7.86,7.86,0,0,1,2.1-.7,12.59,12.59,0,0,1,2.2-.2h8.1a12.59,12.59,0,0,1,2.2.2,19.14,19.14,0,0,1,2.1.7,7.34,7.34,0,0,1,2,1.1,11.19,11.19,0,0,1,1.7,1.4,7.14,7.14,0,0,1,1.4,1.7,16.81,16.81,0,0,1,1.1,1.9,10.26,10.26,0,0,1,.6,2.2,7.94,7.94,0,0,1,.3,2.1v173.9a8,8,0,0,1-.3,2.1,10.26,10.26,0,0,1-.6,2.2,17.74,17.74,0,0,1-1.1,1.9,9.54,9.54,0,0,1-1.4,1.8,13.52,13.52,0,0,1-1.7,1.4,9.58,9.58,0,0,1-2,1,19.14,19.14,0,0,1-2.1.7,12.59,12.59,0,0,1-2.2.2h-8.1a12.59,12.59,0,0,1-2.2-.2,7.86,7.86,0,0,1-2.1-.7,9.58,9.58,0,0,1-2-1,7.14,7.14,0,0,1-1.7-1.4,11.7,11.7,0,0,1-1.4-1.7c-.4-.67-.77-1.33-1.1-2a10.55,10.55,0,0,1-.6-2.1,13.81,13.81,0,0,1-.2-2.2Zm-175.9,57.2a81.41,81.41,0,0,1,22.6-22.7,77.58,77.58,0,0,1,14.2-7.6,80.72,80.72,0,0,1,15.4-4.7,81.8,81.8,0,0,1,32.2,0,80.72,80.72,0,0,1,15.4,4.7,74.45,74.45,0,0,1,14.2,7.6,81.87,81.87,0,0,1,12.5,10.2,87,87,0,0,1,10.2,12.5,85.11,85.11,0,0,1,7.6,14.3,87.07,87.07,0,0,1,4.7,15.5,87.15,87.15,0,0,1,0,32.2,88.58,88.58,0,0,1-4.7,15.4,77.58,77.58,0,0,1-7.6,14.2,75.61,75.61,0,0,1-10.2,12.4,86.21,86.21,0,0,1-12.4,10.2,74.87,74.87,0,0,1-14.3,7.5,80.72,80.72,0,0,1-15.4,4.7,87.15,87.15,0,0,1-32.2,0,89.4,89.4,0,0,1-15.5-4.6,79.61,79.61,0,0,1-14.1-7.6,81.87,81.87,0,0,1-12.5-10.2,75,75,0,0,1-10.1-12.4,80.12,80.12,0,0,1-12.2-29.6,85.33,85.33,0,0,1-1.6-16.1,87.23,87.23,0,0,1,1.6-16.2,80.47,80.47,0,0,1,4.6-15.4,81.42,81.42,0,0,1,7.6-14.3Zm39.1,1.7a56.82,56.82,0,0,0-8,6.7,53.79,53.79,0,0,0-11.5,17.3,49,49,0,0,0-3,9.9,52.07,52.07,0,0,0-1,10.3,50.7,50.7,0,0,0,1,10.2,51.86,51.86,0,0,0,7.9,19,50.11,50.11,0,0,0,6.6,8,46.05,46.05,0,0,0,8,6.6,52.8,52.8,0,0,0,9.1,4.9,49.44,49.44,0,0,0,9.8,3,53.54,53.54,0,0,0,20.6,0,49.44,49.44,0,0,0,9.8-3,57.66,57.66,0,0,0,9.2-4.9,57,57,0,0,0,8.1-6.6,71.88,71.88,0,0,0,6.6-8,61.24,61.24,0,0,0,4.9-9.1,56.54,56.54,0,0,0,3-9.9,50.7,50.7,0,0,0,1-10.2,52.07,52.07,0,0,0-1-10.3,53.33,53.33,0,0,0-3.1-9.9,54.13,54.13,0,0,0-4.9-9.2,55.33,55.33,0,0,0-23.8-19.7,52.51,52.51,0,0,0-30.3-3,48.15,48.15,0,0,0-9.8,3,57.66,57.66,0,0,0-9.2,4.9Z"/><path id="Object_5" data-name="Object 5" class="cls-2" d="M275.3,244.25l-67.9,74.4a12,12,0,0,1-12.7,3.5c-4.7-1.5-7.7-5.3-7.7-9.9l1.2-146a9.6,9.6,0,0,1,3.3-7.3l79.7-77.3a1.82,1.82,0,0,0,.2-2.4,1.74,1.74,0,0,0-2.3-.4l-109.8,68.4a10.22,10.22,0,0,0-5.1,9l2.9,124.9c.1,5.6-1.9,17.5-14.2,20.4-5.4.9-9-1-15.7-4.6L14.6,235.45c-6.4-3.4-10.1-8.8-9.9-13.4l-.5-18.2c3.9,17.2,9.7,23.2,13.4,24.6l91.7,50.1a12,12,0,0,0,11.6.1,10.08,10.08,0,0,0,5.7-9.2l-2.3-111.8a10.11,10.11,0,0,0-5.5-8.7L13,90.55c-6.7-3.7-13-7.9-13-16.2,0-6.3,6.2-10.9,9.8-13.6,3.9-2.9,6-3.4,15.5-8.7l96-49.4a23,23,0,0,1,19.5-.9l12.5,5.1c-12.7,0-21.3-1.4-31.9,4.1L38.9,54.05A9.94,9.94,0,0,0,33.2,63a9.71,9.71,0,0,0,5.5,9l90.8,50.1a11.84,11.84,0,0,0,11.8,0L247,60.35c14.5-8.4,35.8-1.6,35.2,18.4l-4.6,159.6a8.76,8.76,0,0,1-2.3,5.9Z"/><path id="Object_6" data-name="Object 6" class="cls-1" d="M529.8,314.55a3.69,3.69,0,0,1,.2.5,1.19,1.19,0,0,1,0,.7,1.27,1.27,0,0,1-.2.7,3.78,3.78,0,0,1-.5.6,3.74,3.74,0,0,1-.6.2,1.2,1.2,0,0,1-.5.1,9.64,9.64,0,0,1-2.4,0h-.4l-.4-.2a.59.59,0,0,1-.4-.2h-.1a1.31,1.31,0,0,0-.4-.3c-1.3-2-2.8-6.8-3.8-9.2H504.5l-3.3,8.5-.4.6-.4.4-.3.2a1.9,1.9,0,0,1-.5.1l-.5.1-.5.1h-1.3l-.5-.1a1.48,1.48,0,0,1-.6-.1l-.5-.2-.1-.1a1.58,1.58,0,0,1-.5-.6,1.1,1.1,0,0,1-.2-.6,2.74,2.74,0,0,1,.1-.7,1,1,0,0,1,.2-.5l13.8-33.2a1.31,1.31,0,0,1,.3-.5.72.72,0,0,1,.3-.3,1.49,1.49,0,0,1,.4-.3h.1a2.73,2.73,0,0,1,.5-.2l.3-.1a12.37,12.37,0,0,1,3.1,0l.4.1a2.73,2.73,0,0,1,.5.2,1.1,1.1,0,0,1,.5.3,2.21,2.21,0,0,1,.3.4,1,1,0,0,1,.2.4Zm-17.5-26.7-5.7,14.5h11.6Zm50.4,23.5a3.4,3.4,0,0,1-.1,1l-.1.3-.1.3-.2.4-.2.3-.4.3a2.21,2.21,0,0,1-.6.4l-.8.5a10.65,10.65,0,0,1-1.2.7q-.71.3-1.5.6a8.45,8.45,0,0,1-1.7.5,11.08,11.08,0,0,1-1.8.5c-.73.13-1.47.23-2.2.3s-1.57.1-2.3.1a23.13,23.13,0,0,1-3.8-.3,18.23,18.23,0,0,1-3.4-.9,12.75,12.75,0,0,1-3-1.5,15.74,15.74,0,0,1-2.6-2.1,14,14,0,0,1-2.1-2.7,23.78,23.78,0,0,1-1.4-3.2,27.57,27.57,0,0,1-1-3.7,26.33,26.33,0,0,1-.3-4.1,21.08,21.08,0,0,1,.4-4.2,22.67,22.67,0,0,1,.9-3.8,22,22,0,0,1,1.6-3.3,15.35,15.35,0,0,1,2.1-2.9,17.84,17.84,0,0,1,2.7-2.2,12.29,12.29,0,0,1,3.1-1.6,14.09,14.09,0,0,1,3.5-1,17.3,17.3,0,0,1,3.8-.4,15.51,15.51,0,0,1,1.8.1l1.8.2c.6.13,1.17.27,1.7.4l1.6.4a11.19,11.19,0,0,0,1.4.5c.47.2.9.4,1.3.6l1,.6c.27.2.5.37.7.5l.4.4.4.4.1.3a4.09,4.09,0,0,1,.3,2.2v.4a.85.85,0,0,1-.1.4,3.69,3.69,0,0,1-.2.5,1.29,1.29,0,0,0-.2.3l-.4.4a3.69,3.69,0,0,0-.5.2,1.8,1.8,0,0,1-.6.1,2.35,2.35,0,0,1-1-.3,1.77,1.77,0,0,1-.8-.5c-.27-.13-.57-.3-.9-.5s-.7-.4-1.1-.6-.83-.4-1.3-.6a8.87,8.87,0,0,0-1.6-.5,7.22,7.22,0,0,0-1.8-.4,21.29,21.29,0,0,0-2.2-.1,15.53,15.53,0,0,0-2.5.2,9.35,9.35,0,0,0-2.2.7,10.44,10.44,0,0,0-1.9,1,12.1,12.1,0,0,0-1.6,1.5,11,11,0,0,0-1.4,2,10.56,10.56,0,0,0-1,2.3,12.32,12.32,0,0,0-.7,2.9,24.86,24.86,0,0,0-.2,3.2,22.53,22.53,0,0,0,.2,3.1,14.17,14.17,0,0,0,.6,2.7,10.56,10.56,0,0,0,1,2.3,6.78,6.78,0,0,0,1.3,1.8,6.87,6.87,0,0,0,1.6,1.5,7.41,7.41,0,0,0,1.9,1,9.14,9.14,0,0,0,2.3.7,18.24,18.24,0,0,0,2.7.2,21.29,21.29,0,0,0,2.2-.1,7.22,7.22,0,0,0,1.8-.4,8.87,8.87,0,0,0,1.6-.5,15.06,15.06,0,0,0,1.4-.6l1.1-.6q.5-.3.9-.6a6.66,6.66,0,0,1,1-.5,2.74,2.74,0,0,1,1-.2h.4l.4.2h.1l.4.4a1.74,1.74,0,0,1,.3.4.85.85,0,0,0,.1.4l.1.4v.9Zm35.6,3.2a.69.69,0,0,1,.2.5,2.11,2.11,0,0,1,.1.7,1.67,1.67,0,0,1-.2.7,1.83,1.83,0,0,1-.5.5l-.1.1c-.13.06-.3.13-.5.2a2.09,2.09,0,0,1-.6.1,8.85,8.85,0,0,1-2.3,0,3.71,3.71,0,0,1-.9-.2l-.4-.2-.4-.4-.2-.2c-1.3-2.4-2.6-6.3-3.7-8.9H573.1l-3.4,8.5a1.69,1.69,0,0,1-.3.6,1.74,1.74,0,0,1-.4.3v.1l-.4.2a1.2,1.2,0,0,1-.5.1l-.4.1h-.6l-.5.1-.7-.1h-.6a1.57,1.57,0,0,0-.5-.1,2.8,2.8,0,0,1-.6-.3,1.58,1.58,0,0,1-.5-.6,1.27,1.27,0,0,1-.2-.7.88.88,0,0,1,0-.6,3.69,3.69,0,0,1,.2-.5l13.9-33.2a3.69,3.69,0,0,1,.2-.5,1.31,1.31,0,0,1,.4-.3v-.1l.4-.2a2.73,2.73,0,0,1,.5-.2l.4-.1a12.37,12.37,0,0,1,3.1,0l.4.1a2.73,2.73,0,0,1,.5.2,1.31,1.31,0,0,1,.4.3.62.62,0,0,1,.3.3h.1a3.69,3.69,0,0,1,.2.5Zm-17.5-26.7-5.7,14.5h11.6Zm53.8,10.2a31.14,31.14,0,0,1-.3,4.4,17.55,17.55,0,0,1-1,3.8,17.1,17.1,0,0,1-1.7,3.3,18.51,18.51,0,0,1-2.3,2.8,15.35,15.35,0,0,1-2.9,2.1,21.3,21.3,0,0,1-3.6,1.5,19.22,19.22,0,0,1-4.1,1,37,37,0,0,1-4.8.3h-7.8a2,2,0,0,1-.9-.2,3.42,3.42,0,0,1-.9-.4,1.92,1.92,0,0,1-.8-1,2.86,2.86,0,0,1-.3-1.3v-31.5a2.86,2.86,0,0,1,.3-1.3,1.92,1.92,0,0,1,.8-1,3.42,3.42,0,0,1,.9-.4,2,2,0,0,1,.9-.2h8.3a35.71,35.71,0,0,1,4.8.3,29,29,0,0,1,4.1,1,20.25,20.25,0,0,1,3.4,1.6,12.74,12.74,0,0,1,2.8,2.1,14.93,14.93,0,0,1,2.3,2.7,19.6,19.6,0,0,1,1.6,3.1,17.91,17.91,0,0,1,.9,3.5,23.13,23.13,0,0,1,.3,3.8Zm-6.3.2a20.17,20.17,0,0,0-.2-2.8,14.48,14.48,0,0,0-.6-2.5,11.07,11.07,0,0,0-1-2.2,12.94,12.94,0,0,0-3.3-3.3,14.36,14.36,0,0,0-2.3-1.2,11.85,11.85,0,0,0-2.9-.7,21.94,21.94,0,0,0-3.8-.3h-4.9V312h4.9a30,30,0,0,0,3.6-.2,17.42,17.42,0,0,0,2.9-.6,8.45,8.45,0,0,0,2.3-1.1,8.35,8.35,0,0,0,1.9-1.4,9.87,9.87,0,0,0,1.4-1.8,10.54,10.54,0,0,0,1.1-2.3,16.65,16.65,0,0,0,.6-2.9,17.48,17.48,0,0,0,.3-3.4Zm36.5,16.3v.5l-.1.4a1.57,1.57,0,0,1-.1.5,2,2,0,0,1-.3.4,1.74,1.74,0,0,1-.3.4l-.4.2a.69.69,0,0,1-.5.2,1,1,0,0,1-.4.1H644.1a2.5,2.5,0,0,1-.9-.2,3.42,3.42,0,0,1-.9-.4,3,3,0,0,1-.8-1,2.89,2.89,0,0,1-.3-1.3v-31.5a2.86,2.86,0,0,1,.3-1.3,2.53,2.53,0,0,1,.9-1,2.15,2.15,0,0,1,.8-.4,2.3,2.3,0,0,1,.9-.2h18.3a.85.85,0,0,1,.4.1.65.65,0,0,1,.5.2,6108397931351.58,6108397931351.58,0,0,1,.8.6v.1l.2.4.1.4.1.4v.5a2.77,2.77,0,0,1-.1.9l-.1.4-.2.4-.1.1a.72.72,0,0,1-.3.3,1.74,1.74,0,0,1-.4.3,3.69,3.69,0,0,1-.5.2H647.3v10h13.3a3.69,3.69,0,0,1,.5.2l.4.2v.1a.62.62,0,0,1,.3.3l.1.1.2.4.1.4.1.5v.9a2.57,2.57,0,0,1-.5,1.2,1.16,1.16,0,0,1-.4.4,1.72,1.72,0,0,1-.3.2,2.73,2.73,0,0,0-.5.2H647.3V312h15.8a2.73,2.73,0,0,1,.5.2,1.31,1.31,0,0,1,.4.3l.3.3a1.31,1.31,0,0,1,.3.5.82.82,0,0,1,.1.4l.1.5Zm50.7.9a1.06,1.06,0,0,1-.1.5,3.69,3.69,0,0,1-.2.5l-.4.4c-.13.06-.3.13-.5.2a2.35,2.35,0,0,1-.8.2l-.5.1h-1.1l-.5-.1-.4-.1-.5-.1-.4-.2a3.64,3.64,0,0,1-.4-.5.61.61,0,0,1-.2-.4,1.06,1.06,0,0,1-.1-.5V289L696,316.15l-.2.4-.3.2a1.72,1.72,0,0,1-.3.2c-.3.1-.4.2-.7.3h-.4a4.85,4.85,0,0,1-1.7,0H692l-.4-.1-.3-.2-.3-.2a.72.72,0,0,1-.3-.3,1.74,1.74,0,0,1-.3-.4l-12.5-26.8V316h-.1a.7.7,0,0,1-.2.5l-.4.4a.69.69,0,0,1-.5.2,2.35,2.35,0,0,1-.8.2l-.5.1h-1.1l-.5-.1c-.4-.1-.5-.1-.8-.2s-.37-.14-.5-.2a1.83,1.83,0,0,1-.5-.5,1.09,1.09,0,0,1-.1-.5.88.88,0,0,1-.1-.4v-32.6a2.48,2.48,0,0,1,.3-1.3,2.39,2.39,0,0,1,.9-1.1l.8-.4a4.34,4.34,0,0,1,.9-.1h2.9l.8.2.7.2a7,7,0,0,0,.7.3l.5.5a1.7,1.7,0,0,1,.5.5,3.12,3.12,0,0,1,.4.5c4.3,7.9,8.4,18,12.3,26.3l12.6-25.6a7.27,7.27,0,0,0,.4-.7l.4-.6.5-.5a2.65,2.65,0,0,1,.5-.4l.6-.4.6-.2a2.09,2.09,0,0,0,.6-.1h3.4l.4.1a2.73,2.73,0,0,1,.5.2,3.43,3.43,0,0,1,.5.3l.4.4c.13.2.23.37.3.5a1.25,1.25,0,0,1,.2.7,2.11,2.11,0,0,1,.1.7v4.2a22.43,22.43,0,0,1,0,5.8Zm22.4-12.9v12.9a1.8,1.8,0,0,1-.1.6l-.2.4c-.13.13-.27.26-.4.4a1.31,1.31,0,0,1-.5.3l-.3.1-.5.1h-2.1c-.3-.1-.5-.1-.8-.2a1.11,1.11,0,0,1-.4-.2v-.1a1,1,0,0,1-.5-.4.59.59,0,0,1-.2-.4,1.8,1.8,0,0,1-.1-.6v-12.9l-11.3-19.7-.2-.6a1.06,1.06,0,0,1-.1-.5,1.19,1.19,0,0,1,0-.7,1.44,1.44,0,0,1,.5-.7l.1-.1a1.31,1.31,0,0,1,.5-.3,1.8,1.8,0,0,0,.6-.1h.5a9.86,9.86,0,0,1,2.4.1l.4.1a.59.59,0,0,1,.4.2,1,1,0,0,1,.5.4c2,2.4,4.8,8.3,6.4,11.3.87,1.53,1.67,3.07,2.4,4.6,2.4-4.8,6.2-12.6,8.8-16a1.74,1.74,0,0,0,.4-.3l.4-.2.4-.1a8.13,8.13,0,0,1,2.2-.1h.6a1.8,1.8,0,0,0,.6.1,6.23,6.23,0,0,1,.7.4,3.78,3.78,0,0,1,.5.6,1.55,1.55,0,0,1,0,.8,1.8,1.8,0,0,1-.1.6,3.69,3.69,0,0,0-.2.5Z"/></g></g></svg>